<?xml version="1.0" encoding="UTF-8"?>
<svg version="1.1" viewBox="0 0 666.67 666.67" xmlns="http://www.w3.org/2000/svg">
  <g transform="matrix(1.6333 0 0 -1.6333 0 866.67)">
    <g transform="scale(.1)">
      <path d="m1495.8 2335.6v22.4h269.32v-22.4c0-46.15-37.4-83.55-83.55-83.55h-102.22c-46.15 0-83.55 37.4-83.55 83.55" fill="#30a4ff"/>
      <path d="m1495.8 3240.6v-886.94h269.32v886.94h-269.32" fill="#a2d451"/>
      <path d="m1495.8 2376v-44.63h269.32v44.63h-269.32" fill="#0f1960"/>
      <path d="m1765.1 3116.7v44.63h-269.32v-44.63h269.32" fill="#0f1960"/>
      <path d="m1550.3 2991.3v-489.93h160.28v489.93h-160.28" fill="#fff89a"/>
      <path d="m1569.9 3412.3-74.12-171.66h269.32l-72.26 171.17c-22.89 54.21-99.61 54.52-122.94 0.49" fill="#30a4ff"/>
      <path d="m3234.9 2335.6v22.4h269.33v-22.4c0-46.15-37.41-83.55-83.55-83.55h-102.23c-46.14 0-83.55 37.4-83.55 83.55" fill="#f474b9"/>
      <path d="m3234.9 3240.6v-886.94h269.33v886.94h-269.33" fill="#fff89a"/>
      <path d="m3234.9 2376v-44.63h269.33v44.63h-269.33" fill="#0f1960"/>
      <path d="m3504.2 3116.7v44.63h-269.33v-44.63h269.33" fill="#0f1960"/>
      <path d="m3289.4 2991.3v-489.93h160.29v489.93h-160.29" fill="#a2d451"/>
      <path d="m3309 3412.3-74.12-171.66h269.33l-72.27 171.17c-22.89 54.21-99.61 54.52-122.94 0.49" fill="#f474b9"/>
      <path d="m1765.1 2351.7v784.77c0 55 44.58 99.57 99.57 99.57h1270.6c54.99 0 99.57-44.57 99.57-99.57v-784.77c0-54.99-44.58-99.57-99.57-99.57h-1270.6c-54.99 0-99.57 44.58-99.57 99.57" fill="#0f1960"/>
      <path d="m1935.8 2343.6v800.83h1168.8v-800.83h-1168.8" fill="#30a4ff"/>
      <path d="m2343.5 3247.8h344.86v150.5c0 95.08-77.34 172.43-172.43 172.43-95.07 0-172.43-77.35-172.43-172.43zm370.29-25.42h-395.71v175.92c0 109.1 88.76 197.85 197.85 197.85 109.1 0 197.86-88.75 197.86-197.85v-175.92" fill="#f474b9"/>
      <path d="m2845.5 3306.9 84.49-963.28h-860.06l76.27 965.76 699.3-2.48" fill="#fff89a"/>
      <g transform="scale(10)">
        <text transform="matrix(1 0 0 -.99917 115.31 173.48)" fill="#0f1960" font-family="Montserrat" font-size="40.033px" font-weight="800" xml:space="preserve"><tspan x="0 25.501005 49.521 79.586411 105.0075 118.57875 152.44684 184.71359 211.61591 240.83952" y="0">STATIONERY</tspan></text>
      </g>
      <g transform="scale(10)">
        <text transform="matrix(1 0 0 -.99917 209.44 146.09)" fill="#4d78e3" font-family="Montserrat" font-size="21.729px" font-weight="500" xml:space="preserve"><tspan x="0 14.579606 28.420929 47.975655 65.076271" y="0">STORE</tspan></text>
      </g>
    </g>
  </g>
</svg>