<svg class="svg-icon" style="width: 1em; height: 1em;vertical-align: middle;fill: currentColor;overflow: hidden;" viewBox="0 0 1024 1024" version="1.1" xmlns="http://www.w3.org/2000/svg"><path d="M781.6 922.9H134c-8.7 0-15.8-7.1-15.8-15.8V116.9c0-8.7 7.1-15.8 15.8-15.8h647.6c8.7 0 15.8 7.1 15.8 15.8v790.2c0 8.7-7.1 15.8-15.8 15.8z" fill="#FFFFFF" /><path d="M768.5 941.2H147.1c-26 0-47.2-21.2-47.2-47.2V130c0-26 21.2-47.2 47.2-47.2h621.4c26 0 47.2 21.2 47.2 47.2v764c0 26-21.2 47.2-47.2 47.2zM147.1 119.4c-5.8 0-10.6 4.7-10.6 10.6v764c0 5.8 4.7 10.6 10.6 10.6h621.4c5.8 0 10.6-4.7 10.6-10.6V130c0-5.8-4.7-10.6-10.6-10.6H147.1z" fill="#232323" /><path d="M138.7 114H302v796H138.1c-4 0-7.2-3.2-7.2-7.2V121.7c0-4.3 3.5-7.7 7.8-7.7z" fill="#FFE092" /><path d="M768.5 941.2H147.1c-26 0-47.2-21.2-47.2-47.2V130c0-26 21.2-47.2 47.2-47.2h621.4c26 0 47.2 21.2 47.2 47.2v764c0 26-21.2 47.2-47.2 47.2zM147.1 119.4c-5.8 0-10.6 4.7-10.6 10.6v764c0 5.8 4.7 10.6 10.6 10.6h621.4c5.8 0 10.6-4.7 10.6-10.6V130c0-5.8-4.7-10.6-10.6-10.6H147.1z" fill="#232323" /><path d="M588.2 664.9L480.1 556.8 834 202.9c8.1-8.1 21.2-8.1 29.3 0l78.7 78.7c8.1 8.1 8.1 21.2 0 29.3l-353.8 354z" fill="#FFAF78" /><path d="M588.2 683.2c-4.7 0-9.4-1.8-12.9-5.4l-108.1-108c-3.4-3.4-5.4-8.1-5.4-12.9 0-4.9 1.9-9.5 5.4-12.9L809 202.2c10.6-10.6 24.8-16.5 39.8-16.5 15 0 29.2 5.9 39.8 16.5l54.3 54.3c21.9 21.9 21.9 57.6 0 79.6L601.1 677.8c-3.6 3.6-8.2 5.4-12.9 5.4zM506 556.8l82.2 82.2L917 310.2c7.7-7.7 7.7-20.2 0-27.8L862.6 228c-7.7-7.7-20.2-7.7-27.8 0L506 556.8z" fill="#232323" /><path d="M896.6 332.9L812 248.3l27.6-27.6c4.6-4.6 12-4.6 16.6 0l68 68c4.6 4.6 4.6 12 0 16.6l-27.6 27.6z" fill="#FF7B7B" /><path d="M899.4 372.4c-4.7 0-9.4-1.8-12.9-5.4L778.4 258.9c-3.6-3.6-5.4-8.3-5.4-12.9 0-4.7 1.8-9.4 5.4-12.9 7.1-7.1 18.7-7.1 25.9 0l108.1 108.1c3.6 3.6 5.4 8.3 5.4 12.9 0 4.7-1.8 9.4-5.4 12.9-3.7 3.6-8.4 5.4-13 5.4zM502.4 682.9c-3 0-6.1-1.2-8.4-3.5L465.6 651c-4.6-4.6-4.6-12.2 0-16.8 4.6-4.6 12.2-4.6 16.8 0l28.4 28.4c4.6 4.6 4.6 12.2 0 16.8-2.3 2.3-5.4 3.5-8.4 3.5z" fill="#232323" /><path d="M520.8 584.9l302.1-302.1 39.3 39.2-302.1 302.2" fill="#FFDEC7" /><path d="M560.1 638.8c-3.7 0-7.5-1.4-10.4-4.3-5.7-5.7-5.7-15 0-20.7L841.5 322 823 303.5 531.2 595.3c-5.7 5.7-15 5.7-20.7 0-5.7-5.7-5.7-15 0-20.7l302.1-302.1c2.7-2.7 6.5-4.3 10.4-4.3 3.9 0 7.6 1.5 10.4 4.3l39.2 39.2c5.7 5.7 5.7 15 0 20.7L570.4 634.5c-2.8 2.9-6.6 4.3-10.3 4.3zM116.9 316.3c-28.8 0-52.2-23.4-52.2-52.2 0-28.8 23.4-52.2 52.2-52.2 28.8 0 52.2 23.4 52.2 52.2 0 7.6-6.1 13.7-13.7 13.7s-13.7-6.1-13.7-13.7c0-13.7-11.1-24.8-24.8-24.8-13.7 0-24.8 11.1-24.8 24.8 0 13.7 11.1 24.8 24.8 24.8 7.6 0 13.7 6.1 13.7 13.7 0 7.5-6.1 13.7-13.7 13.7zM116.9 558c-28.8 0-52.2-23.4-52.2-52.2s23.4-52.2 52.2-52.2c28.8 0 52.2 23.4 52.2 52.2 0 7.6-6.1 13.7-13.7 13.7s-13.7-6.1-13.7-13.7c0-13.7-11.1-24.8-24.8-24.8-13.7 0-24.8 11.1-24.8 24.8 0 13.7 11.1 24.8 24.8 24.8 7.6 0 13.7 6.1 13.7 13.7 0 7.5-6.1 13.7-13.7 13.7z" fill="#232323" /><path d="M116.9 799.6c-28.8 0-52.2-23.4-52.2-52.2 0-28.8 23.4-52.2 52.2-52.2 28.8 0 52.2 23.4 52.2 52.2 0 7.6-6.1 13.7-13.7 13.7s-13.7-6.1-13.7-13.7c0-13.7-11.1-24.8-24.8-24.8-13.7 0-24.8 11.1-24.8 24.8 0 13.7 11.1 24.8 24.8 24.8 7.6 0 13.7 6.1 13.7 13.7s-6.1 13.7-13.7 13.7z" fill="#232323" /><path d="M302 101.1v814.7" fill="#FFFFFF" /><path d="M302 934.2c-10.1 0-18.3-8.2-18.3-18.3V101.1c0-10.1 8.2-18.3 18.3-18.3 10.1 0 18.3 8.2 18.3 18.3v814.7c0 10.2-8.2 18.4-18.3 18.4z" fill="#232323" /><path d="M467.7 695.6c-4.8 0-9.5-1.9-12.9-5.4-3.9-3.9-5.8-9.3-5.3-14.8L461.9 555c0.7-7 5.4-13 12.1-15.4 6.7-2.4 14.1-0.7 19.1 4.3L601.2 652c5 5 6.7 12.4 4.3 19.1-2.4 6.7-8.3 11.4-15.4 12.1l-120.4 12.4c-0.7-0.1-1.3 0-2 0z m26.7-98.6l-6.1 59.8 59.8-6.1-53.7-53.7z" fill="#232323" /></svg>